<svg xmlns="http://www.w3.org/2000/svg" width="16" height="16" viewBox="0 0 678.47 569.55"><defs><style>.cls-1{fill:currentColor;}</style></defs><path class="cls-1" d="M261.94,0q12.94,0,22.67,10.47a35.66,35.66,0,0,1,9.72,25.13q0,16.76-10.18,27.22l-205.48,222,205.48,222A39.79,39.79,0,0,1,294.33,534a35.57,35.57,0,0,1-9.72,25.12q-9.72,10.49-22.67,10.47T238.8,559.08L10.18,311Q0,300.5,0,284.78T10.18,258.6Q25,242.9,48.59,217.25t73.59-80.09q50-54.43,116.62-126.69A29.62,29.62,0,0,1,261.94,0Z"/><path class="cls-1" d="M415.6,0h.93q12.95,0,23.14,10.47L668.29,258.6q10.17,10.48,10.18,26.18T668.29,311q-14.82,15.71-38.42,41.36T556.29,432.4q-50,54.45-116.62,126.68-10.2,10.49-23.14,10.47t-22.68-10.47A35.57,35.57,0,0,1,384.13,534a39.71,39.71,0,0,1,10.19-27.22l205.47-222-205.47-222q-10.2-10.45-10.19-27.22a36.68,36.68,0,0,1,9.26-25.13Q402.63,0,415.6,0Z"/></svg>