<svg xmlns="http://www.w3.org/2000/svg" viewBox="0 0 767.4 231.9" fill="currentColor"><path d="M84.9,23.4a10.32,10.32,0,0,1,7.35,3,9.59,9.59,0,0,1,3.15,7.2,10.05,10.05,0,0,1-3.3,7.8L25.5,105l66.6,63.6a10.66,10.66,0,0,1,3.3,7.8,9.59,9.59,0,0,1-3.15,7.2,10.32,10.32,0,0,1-7.35,3,10.84,10.84,0,0,1-7.5-3L3.3,112.5a10.17,10.17,0,0,1,0-15Q8.1,93,15.75,85.65l23.85-23Q55.8,47.1,77.4,26.4A10.18,10.18,0,0,1,84.9,23.4Z"/><path d="M204.6,0h.3a9.59,9.59,0,0,1,7.2,3.15,10.32,10.32,0,0,1,3,7.35V52.2h52.5a9.82,9.82,0,0,1,7.2,3,10.5,10.5,0,0,1,0,14.7,9.82,9.82,0,0,1-7.2,3H215.1v73.5q0,12.3,5.1,17.7,6.6,7.2,24.6,7.2h12a10.32,10.32,0,0,1,7.35,3,10.15,10.15,0,0,1,0,14.7,10.32,10.32,0,0,1-7.35,3h-12q-27,0-39.9-13.5-10.5-11.4-10.5-32.1V72.9H163.2a9.82,9.82,0,0,1-7.2-3,10.5,10.5,0,0,1,0-14.7,9.82,9.82,0,0,1,7.2-3h31.2V10.5a10.32,10.32,0,0,1,3-7.35A9.59,9.59,0,0,1,204.6,0Z"/><path d="M354.15,59a25.28,25.28,0,0,1,12-5h19.24q26.25,0,41.25,15Q444,87,444,123.9t-17.7,54.6q-15,15-41.1,15t-40.8-15a.48.48,0,0,1-.45-.3.49.49,0,0,0-.45-.3v43.8a9.82,9.82,0,0,1-3,7.2,10.5,10.5,0,0,1-14.7,0,9.82,9.82,0,0,1-3-7.2V68.4a10.18,10.18,0,0,1,3-7.5,10.5,10.5,0,0,1,14.7,0,10.18,10.18,0,0,1,3,7.5v1.2q.3,0,.6-.6C348.35,64.75,351.33,61,354.15,59ZM385.2,74.7q-17.4,0-26.1,9-11.7,11.7-11.7,40.05t11.7,40.05q8.7,9,26.1,9t26.4-9q11.7-11.7,11.7-40.05t-11.7-40Q402.89,74.7,385.2,74.7Z"/><path d="M584.4,9h.3a10.25,10.25,0,0,1,10.5,10.5,8.6,8.6,0,0,1-.9,3.9q-66.6,163.2-66.6,163.5-2.7,6.6-9.6,6.6a9.91,9.91,0,0,1-7.5-3.15,10.32,10.32,0,0,1-3-7.35,10.59,10.59,0,0,1,.9-4.2L575.1,15.6C576.7,11.2,579.79,9,584.4,9Z"/><path d="M682.2,23.4h.3a10.86,10.86,0,0,1,7.5,3l74.1,71.1a10.17,10.17,0,0,1,0,15q-4.8,4.5-12.45,11.85l-23.85,23q-16.2,15.6-37.8,36.3a10.86,10.86,0,0,1-7.5,3,10.31,10.31,0,0,1-7.35-3,9.59,9.59,0,0,1-3.15-7.2,10.63,10.63,0,0,1,3.3-7.8L741.9,105,675.3,41.4a10,10,0,0,1-3.3-7.8,10.24,10.24,0,0,1,10.2-10.2Z"/></svg>