<svg xmlns="http://www.w3.org/2000/svg" viewBox="0 0 206.26 153.48"><defs><style>.cls-1{fill:#fff;}</style></defs><title>Asset 1</title><g id="Layer_2" data-name="Layer 2"><g id="logo"><path class="cls-1" d="M107.41,0H17.31l8.88,30.69h81.22A15.37,15.37,0,0,1,122.76,46V61.39H46a46,46,0,0,0,0,92.09h61.37a46.1,46.1,0,0,0,46.05-46V46A46.1,46.1,0,0,0,107.41,0Zm15.35,107.43a15.36,15.36,0,0,1-15.35,15.35H46a15.35,15.35,0,0,1,0-30.7h76.72v15.35Z"/><polygon class="cls-1" points="197.38 61.39 169.4 61.39 169.4 92.08 206.26 92.08 197.38 61.39"/></g></g></svg>