<svg xmlns="http://www.w3.org/2000/svg" viewBox="0 0 418.38 459.69"><defs><style>.cls-1{fill:#20f877;}</style></defs><title>5Asset 1</title><g id="Layer_2" data-name="Layer 2"><g id="Capa_1" data-name="Capa 1"><path class="cls-1" d="M394.9,90.45q-23.49-45.29-69.78-67.87T210.15,0Q140.37,0,94,22.45T24.17,90.07Q.83,135.24.27,203.35,0,220.51,0,237.66V272Q0,334.8,23.21,376.43t69.92,62.44q46.7,20.82,117,20.82H292V414.52H210.15q-53.57,0-89-15.76t-53-47.44Q50.55,319.67,50.55,272V237.41q0-17.15.27-34.06.55-53.47,18.27-88.81a116,116,0,0,1,52.88-53q35.16-17.65,88.18-17.66,51.65,0,86.81,17.79a117.24,117.24,0,0,1,53,53.23q17.85,35.45,17.86,88.43v83.76q0,18.93-5.91,27.5t-18.82,8.58q-12.36,0-18.4-9.08t-6-27.75V210.92q0-57-27.19-85.15T209.33,97.64q-54.95,0-82.28,28.13t-27.33,84.9v43.39q0,56.52,24,84.78t72.38,28.25q36,0,56.46-15a60.61,60.61,0,0,0,17.61-20.41,58.1,58.1,0,0,0,11.23,15.74q19.92,19.68,59.75,19.68,37.63,0,57.41-20.69t19.78-64.33V203.35Q418.38,135.75,394.9,90.45ZM251.36,304.65q-14,16-42.58,16-28,0-41.89-16T153,256.08V208.15q0-64.1,55.77-64.09,28.56,0,42.58,15.9t14,47.93v48.19Q265.37,288.63,251.36,304.65Z"/></g></g></svg>