<svg xmlns="http://www.w3.org/2000/svg" viewBox="0 0 281.3 393.77"><defs><style>.cls-1{fill:rgba(32, 248, 118, 0.7);}</style></defs><title>5Asset 3</title><g id="Layer_2" data-name="Layer 2"><g id="Layer_1-2" data-name="Layer 1"><path class="cls-1" d="M280.13,45C273.6,14.65,246-4.23,215.13.92a55.7,55.7,0,0,0-45.77,63.21c2.49,17.1,11.49,30.24,26.07,39.51a2.7,2.7,0,0,1,1.48,2.6q-.09,16.37,0,32.74a3.66,3.66,0,0,1-1.2,2.86q-26.83,26.76-53.59,53.61c-1.28,1.29-1.89,1.07-3-.07q-26.67-26.77-53.45-53.45a4.13,4.13,0,0,1-1.28-3.27c0-10.47.09-21,0-31.42a4.35,4.35,0,0,1,2.31-4.13c19.29-13.24,28.19-31.56,25.24-54.82C108.6,22.54,88,3.13,62.12.33A56,56,0,0,0,1.22,44.48C.85,46.21,1,48.08,0,49.66V62c.33.11.38.38.42.68,2.34,17.7,11.18,31.26,26.12,40.9a3,3,0,0,1,1.62,3c-.06,15.3,0,30.61-.07,45.92a4.88,4.88,0,0,0,1.54,3.83q40.77,40.65,81.46,81.36a4.37,4.37,0,0,1,1.44,3.43q-.07,22.74,0,45.48a4,4,0,0,1-2.14,4A55.94,55.94,0,0,0,155.62,391.6c23.06-6.57,37.09-22.39,40.52-46.06,3.37-23.37-5.86-41.86-25.42-55.09a3.8,3.8,0,0,1-2-3.62q.1-22.74,0-45.48a4.88,4.88,0,0,1,1.53-3.84q40.77-40.65,81.46-81.37a4.38,4.38,0,0,0,1.45-3.42c0-15.16,0-30.32-.09-45.48a4.23,4.23,0,0,1,2.32-4.13C274.79,90.93,284.88,67.14,280.13,45ZM56.07,90.09c-18.4-.07-33.72-15.55-33.66-34S37.93,22.38,56.65,22.43c18.21.05,33.5,15.6,33.44,34S74.53,90.15,56.07,90.09ZM174.46,337.32a34.18,34.18,0,0,1-33.66,34c-18.45.06-34-15.27-34-33.66s15.21-33.95,33.43-34C159,303.63,174.39,318.79,174.46,337.32ZM224.92,90.09a34.18,34.18,0,0,1-33.76-33.92,34.1,34.1,0,0,1,34.13-33.74c18.26,0,33.57,15.51,33.55,33.89A34.19,34.19,0,0,1,224.92,90.09Z"/></g></g></svg>