<svg xmlns="http://www.w3.org/2000/svg" viewBox="0 0 394.6 401.2"><defs><style>.cls-1{fill:rgba(32, 248, 118, 0.7);}</style></defs><title>5Asset 2</title><g id="Layer_2" data-name="Layer 2"><g id="Layer_1-2" data-name="Layer 1"><path class="cls-1" d="M315.4,158.5H258.5L180.2,401.2h46l21-68.8h77.5l22.1,68.8h47.8ZM254.5,298.9l18.8-59.8c4.3-14.4,8-31.3,11.6-45.4h.7c3.6,14,7.6,30.6,12.3,45.4l19.2,59.8Z"/><path class="cls-1" d="M236,178.1c0-33-17.8-62.7-58.1-74.5.6-3.2,1.4-6.5,2.2-9.7l-34.2-9.1A75.79,75.79,0,0,1,143.7,98c-13.1-.9-30,.9-41.7,3.8,0-9.7.3-19.7.6-30,33.4-1.2,73.4-4.1,104-10l-3.1-35.6c-30.9,7.1-69,10.9-99.3,12.4.8-9.4,1.4-20.6,2.2-29.1,4.7-.6,7-2.9,7.5-5.9L70.3,0c-.6,12.4-.8,27.1-1.4,39.7-20.6,0-43.9,0-56.7-.3l1.7,34.4c11.1.3,33.6-.3,54.5-.9,0,13.5,0,26.5.6,39.2C29.5,129.2,0,161.3,0,201.9c0,27.4,16.1,43.9,40.6,43.9,15.6,0,30.9-5.3,44.8-13.5a72.57,72.57,0,0,0,3.9,9.7l28.6-19.4a63.27,63.27,0,0,1-3.9-10c21.7-19.7,40.3-47.1,52.6-76.6,30,10.3,33.1,33.3,33.1,43,0,34.2-32.8,51.8-82.9,57.7,5.3,7.9,12.2,22.1,14.5,29.7C202.7,257,236,225.2,236,178.1Zm-186.8,33c-3.6.3-15.6.9-15.6-15.9,0-19.7,15-37.7,37-49.2,1.4,20,3.3,38.3,6.4,53.9C67.2,206.7,57.8,210.8,49.2,211.1Zm56.7-36.8c-1.9-11.8-2.8-25.3-3.6-40,12.5-3.5,27-4.7,30.9-4.1A159.59,159.59,0,0,1,105.9,174.3Z"/></g></g></svg>