<svg xmlns="http://www.w3.org/2000/svg" viewBox="0 0 102.01 167.51"><defs><style>.cls-1{fill:#fff;}</style></defs><title>Asset 1</title><g id="Layer_2" data-name="Layer 2"><g id="Layer_1-2" data-name="Layer 1"><g id="g3788"><g id="g3786"><path id="path3784" class="cls-1" d="M1.77,166.48C11,162.75,11,162.75,11,152.33V12.78c0-5.7,2-13-11-10C1,1.77,2,1,3,0H44.22c-6.87,1.57-7.66,6.09-7.66,12.38q.3,70.77.2,141.33c0,10,0,10,10.22,10.22,8.25,0,16.51.39,24.37-2,15.92-4.52,26.14-14.35,27.32-31.84.2-1.57-.2-3.34,3.34-4.32v37.73c0,3.94-3.14,3.54-5.7,3.54H11.79c-3.14.4-6.48,1-10-.59Z"/></g></g></g></g></svg>