<?xml version="1.0" encoding="utf-8"?>
<!-- Generator: Adobe Illustrator 23.0.1, SVG Export Plug-In . SVG Version: 6.00 Build 0)  -->
<svg version="1.1" id="Capa_1" xmlns="http://www.w3.org/2000/svg" xmlns:xlink="http://www.w3.org/1999/xlink" x="0px" y="0px"
	 viewBox="0 0 490.7 490.7" style="enable-background:new 0 0 490.7 490.7;" xml:space="preserve">
<style type="text/css">
	.st0{fill:#20F877;}
</style>
<g>
	<g>
		<path class="st0" d="M472.4,0h-454C8.2,0,0,8.2,0,18.4v454c0,10.1,8.2,18.4,18.4,18.4h454c10.1,0,18.4-8.2,18.4-18.4v-454
			C490.7,8.2,482.5,0,472.4,0z M130.4,403.8c0,6.8-5.5,12.2-12.2,12.2h-49c-6.8,0-12.2-5.5-12.2-12.2V189.6
			c0-6.8,5.5-12.2,12.2-12.2h49c6.8,0,12.2,5.5,12.2,12.2V403.8z M130.4,127.5c0,6.8-5.5,12.2-12.2,12.2h-49
			c-6.8,0-12.2-5.5-12.2-12.2V84c0-6.8,5.5-12.2,12.2-12.2h49c6.8,0,12.2,5.5,12.2,12.2V127.5z M433.8,403.8
			c0,6.8-5.5,12.2-12.2,12.2h-49c-6.8,0-12.2-5.5-12.2-12.2v-90.4c0-30-1.6-49.4-4.7-58.2c-3.1-8.8-8.2-15.6-15.3-20.5
			c-7.1-4.9-15.6-7.3-25.5-7.3c-12.7,0-24.1,3.5-34.3,10.5c-10.1,7-17,16.2-20.8,27.7c-3.7,11.5-5.6,32.8-5.6,63.8v74.5
			c0,6.8-5.5,12.2-12.2,12.2h-49c-6.8,0-12.2-5.5-12.2-12.2V189.6c0-6.8,5.5-12.2,12.2-12.2h43.8c6.8,0,12.2,5.5,12.2,12.2v16.3
			c0,6.8,3.3,7.9,7.9,2.9c22.9-25.1,50.8-37.7,83.7-37.7c16.2,0,31,2.9,44.5,8.8c13.4,5.8,23.6,13.3,30.5,22.4
			c6.9,9.1,11.7,19.4,14.4,30.9c2.7,11.5,4.1,28,4.1,49.4L433.8,403.8L433.8,403.8z"/>
	</g>
</g>
</svg>
