<svg xmlns="http://www.w3.org/2000/svg" viewBox="0 0 612 364.01"><defs><style>.cls-1{fill:#fff;fill-rule:evenodd;}</style></defs><title>Asset 1</title><g id="Layer_2" data-name="Layer 2"><g id="layer"><path class="cls-1" d="M131.86,115.53h0L197.09,2.89a7.7,7.7,0,0,1,10.08-1.68c2.36,1.34,4.37,5.72,2,10.09l-34,55.81c-4.71,8.74-2.35,19.17-2.35,21.18,0,31.27,2.35,33.29-6,48.09L37,354.59a19,19,0,0,1-16.14,8.74C8.46,363.67,1.06,353.25.05,345.18a22.68,22.68,0,0,1,2-10.76Z"/><path class="cls-1" d="M164.14,174.37h0L229.36,61.73c1.69-2,5.72-4.37,9.76-1.68a7.74,7.74,0,0,1,2,10.09l-34,55.81c-4.7,8.74-2.35,19.17-2.35,21.19,0,31.26,2.35,33.28-6,48.08L103.61,354.59a19,19,0,0,1-16.14,8.74c-12.44.34-19.83-10.08-20.84-18.15a22.7,22.7,0,0,1,2-10.76Z"/><path class="cls-1" d="M198.09,233.21h0l65.23-112.64a7.72,7.72,0,0,1,10.09-1.68c2.36,1.35,4.37,5.72,2,10.09l-34,55.81c-4.71,8.75-2.35,19.17-2.35,21.19,0,31.27,2.35,33.28-6.06,48.08L172.54,354.93a19,19,0,0,1-16.14,8.74c-12.44.34-19.84-10.09-20.84-18.16a22.63,22.63,0,0,1,2-10.76Z"/><path class="cls-1" d="M334.27,115.87h0L399.5,3.23a7.71,7.71,0,0,1,10.09-1.68,7.73,7.73,0,0,1,2,10.08l-34,55.82c-4.7,8.74-2.35,19.16-2.35,21.18,0,31.27,2.35,33.29-6.05,48.08L239.45,354.93a19,19,0,0,1-16.14,8.74c-12.44.34-19.84-10.09-20.84-18.16a22.63,22.63,0,0,1,2-10.76Z"/><path class="cls-1" d="M367.22,174.37h0L432.45,61.73a7.38,7.38,0,0,1,12.11,8.41L410.6,126c-4.71,8.74-2.36,19.17-2.36,21.19,0,31.26,2.36,33.28-6.05,48.08L306.7,354.59a19,19,0,0,1-16.14,8.74c-12.44.34-19.84-10.08-20.85-18.15a22.68,22.68,0,0,1,2-10.76Z"/><path class="cls-1" d="M400.51,233.21h0l65.23-112.64a7.37,7.37,0,0,1,12.1,8.41l-34,55.81c-4.7,8.75-2.35,19.17-2.35,21.19,0,31.27,2.35,33.28-6,48.08L375,354.93a19,19,0,0,1-16.13,8.74C346.37,364,339,353.58,338,345.51a22.61,22.61,0,0,1,2-10.76Z"/><path class="cls-1" d="M437.49,291.72h0l65.23-112.64a7.71,7.71,0,0,1,10.09-1.68c2.35,1.34,4.37,5.71,2,10.08l-34,55.82c-4.71,8.74-2.36,19.16-2.36,21.18,0,31.27,2.36,33.29-6.05,48.08l-25.55,42a19,19,0,0,1-16.14,8.74c-12.44.34-19.84-10.08-20.85-18.15a22.68,22.68,0,0,1,2-10.76Z"/><path class="cls-1" d="M504.07,291.72h0l30.26-50.78a7.37,7.37,0,0,1,12.1,8.41l-34,55.82c-4.7,8.74-2.35,19.16-2.35,21.18.34,8.4,6.73,9.41,6.39,16.47,0,7.74-3,11.77-3,11.77a19,19,0,0,1-16.14,8.74c-12.44.34-19.83-10.08-20.84-18.15a22.7,22.7,0,0,1,2-10.76Z"/><path class="cls-1" d="M538.36,351.57l27.91-47.08c4-8.74,18.16-2.35,11.77,7.74L549.8,359.64c-4,8.4-19.17,2.35-11.44-8.07"/><path class="cls-1" d="M612,357a7.06,7.06,0,1,1-7.06-7.07A7.34,7.34,0,0,1,612,357"/></g></g></svg>