<?xml version="1.0" encoding="utf-8"?>
<!-- Generator: Adobe Illustrator 23.0.1, SVG Export Plug-In . SVG Version: 6.00 Build 0)  -->
<svg version="1.1" id="svg" xmlns="http://www.w3.org/2000/svg" xmlns:xlink="http://www.w3.org/1999/xlink" x="0px" y="0px"
	 viewBox="0 0 400 311.3" style="enable-background:new 0 0 400 311.3;" xml:space="preserve">
<style type="text/css">
	.st0{fill-rule:evenodd;clip-rule:evenodd;fill:#FFFFFF;}
</style>
<path id="path0" class="st0" d="M103.8,43.5c0.1,43.3,0.1,43.5,0.7,44.9c0.4,0.8,0.7,1.8,0.9,2.3c1,4,8.1,10.5,12.4,11.4
	c0.7,0.2,2.3,0.5,3.4,0.8c9.1,2.4,21.1-5.3,23.1-14.8c0.2-0.8,0.4-9.4,0.5-19.1c0.2-15.6,0.3-17.9,0.7-19.3c1.3-3.8,4.3-6.8,8.1-8
	l2.3-0.7h48.2c38.5,0,48.6,0.1,49.8,0.4c0.9,0.2,2.8,0.5,4.4,0.6c2.7,0.2,7,1.2,9.8,2.1c0.8,0.3,1.9,0.6,2.6,0.8
	c0.6,0.2,2.5,0.9,4,1.5c1.6,0.7,3.3,1.4,3.8,1.5s1.8,0.7,2.8,1.3s2.6,1.4,3.6,2c2.2,1.2,9.9,6.4,11.4,7.7c7.7,6.7,14.7,15,18.8,22.6
	c2,3.6,2.2,4.1,4.6,9.6c1.4,3.4,3.2,9.3,3.8,12.8c0.1,0.9,0.5,2.7,0.8,4.2c0.9,4.4,0.8,18.4-0.1,23.7c-3,15.7-9.6,29.5-18.9,39.9
	c-1.2,1.3-2.5,2.8-2.9,3.3c-4.1,4.9-17.9,14.7-23.8,16.9c-1,0.4-2.3,0.9-2.8,1.1c-3.2,1.4-5.9,2.4-7.9,2.9c-1.2,0.3-2.5,0.7-2.8,0.9
	s-1.3,0.4-2.1,0.5c-15.6,2.1-24.2,13.8-19.8,27c1,3,1.2,3.5,2.8,5.9c4,6.1,14.6,10.2,20.4,8c0.5-0.2,2.1-0.5,3.4-0.8
	c3.6-0.6,6.3-1.3,11.7-3c2.7-0.9,4.9-1.5,5-1.5s1-0.3,1.9-0.7s2.6-1.1,3.8-1.6c24.2-9.4,48.6-32.2,61-57.1c1-2,1.9-3.8,2.1-4.2
	c0.8-1.6,3.8-9.2,5.2-13.4c1.7-5.3,3-10.2,3.5-14.1c0.2-1.3,0.5-3.2,0.8-4.1c0.5-1.9,0.8-6.9,0.9-12.3c0-2.8,0.1-3.6,0.6-4.1
	c0.8-0.8,0.7-3-0.1-4c-0.5-0.7-0.6-1.3-0.6-4.4c-0.1-11.5-2.9-25.9-7.1-35.8c-0.3-0.8-1-2.5-1.6-3.9c-0.9-2.3-5.7-11.8-7-14
	c-3.9-6.5-7.4-11.4-11.8-16.3c-1.6-1.8-3.6-4.1-4.4-5.1c-1.6-2-2-2.4-4.2-4.2c-0.8-0.6-2.9-2.5-4.8-4.2c-5.9-5.3-11.8-9.4-20.6-14.3
	c-2.6-1.5-4.8-2.7-4.9-2.7s-1.5-0.6-3.1-1.4c-1.7-0.8-3.4-1.5-3.8-1.6c-0.5-0.1-1-0.3-1.1-0.4c-0.2-0.1-1.4-0.6-2.6-1.1
	c-1.3-0.5-2.5-1-2.6-1.1c-0.2-0.1-0.6-0.3-1-0.3s-1.6-0.3-2.7-0.7C278.2,4.2,268,2,263.6,1.7c-2.7-0.2-4.3-0.6-4.3-1.1
	c0-0.1-35-0.3-77.7-0.3h-77.7L103.8,43.5"/>
<path id="path1" class="st0" d="M103.1,41.7c0,29.1,0.1,42.4,0.3,44c0.3,2.1,1.4,5.1,1.8,4.8c0.1-0.1-0.2-0.9-0.6-1.8l-0.7-1.6
	l-0.1-43.5c0-28.2-0.2-43.6-0.4-43.6C103.2,0,103.1,14.7,103.1,41.7 M259.1,0.3c0,0.5,1.6,1,4.3,1.1c4.4,0.3,14.6,2.5,18.7,4.1
	c1.1,0.4,2.3,0.7,2.7,0.7c0.4,0,0.8,0.1,1,0.3c0.2,0.1,1.3,0.7,2.6,1.1c1.3,0.5,2.5,1,2.6,1.1c0.2,0.1,0.7,0.3,1.1,0.4
	c0.5,0.1,2.2,0.8,3.8,1.6c1.7,0.8,3.1,1.4,3.1,1.4c0.1,0,2.3,1.2,4.9,2.7c8.9,5,14.7,9,20.6,14.3c1.9,1.7,4.1,3.6,4.8,4.2
	c2.2,1.8,2.6,2.2,4.2,4.2c0.8,1,2.8,3.3,4.4,5.1c4.4,5,7.9,9.8,11.8,16.3c1.4,2.3,6.1,11.8,7,14c0.5,1.4,1.3,3.1,1.6,3.9
	c4.2,9.9,7,24.3,7.1,35.8c0,3.1,0.1,3.7,0.6,4.4c0.8,1,0.8,3.2,0.1,4c-0.4,0.5-0.6,1.2-0.6,4.1c-0.1,5.5-0.4,10.5-0.9,12.3
	c-0.2,0.9-0.6,2.8-0.8,4.1c-0.5,3.8-1.8,8.8-3.5,14.1c-1.4,4.2-4.3,11.8-5.2,13.4c-0.2,0.3-1.1,2.2-2.1,4.2
	c-12.4,24.9-36.8,47.8-61,57.1c-1.2,0.5-2.9,1.2-3.8,1.6c-0.9,0.4-1.7,0.7-1.9,0.7c-0.1,0-2.4,0.7-5,1.5c-5.4,1.7-8,2.4-11.7,3
	c-1.4,0.2-2.9,0.6-3.4,0.8c-4.6,1.8-12.2-0.3-17-4.5c-2.4-2.1-3.2-3-4.7-5.5c-2.6-4.2-3.2-11.5-1.5-16.4c3.1-8.7,9.1-13.1,19.8-14.5
	c0.9-0.1,1.8-0.3,2.1-0.5c0.3-0.2,1.6-0.6,2.8-0.9c2-0.5,4.7-1.5,7.9-2.9c0.5-0.2,1.8-0.7,2.8-1.1c5.9-2.3,19.7-12.1,23.8-16.9
	c0.4-0.5,1.7-2,2.9-3.3c9.4-10.3,15.9-24.2,18.9-39.9c1-5.2,1.1-19.3,0.1-23.7c-0.3-1.5-0.7-3.3-0.8-4.2c-0.6-3.5-2.4-9.4-3.8-12.8
	c-2.3-5.4-2.6-6-4.6-9.6c-4.1-7.6-11.1-15.9-18.8-22.6c-1.6-1.3-9.2-6.5-11.4-7.7c-0.9-0.5-2.5-1.4-3.6-2c-1-0.6-2.3-1.1-2.8-1.3
	c-0.5-0.1-2.3-0.8-3.8-1.5c-1.6-0.7-3.4-1.4-4-1.5c-0.6-0.2-1.8-0.5-2.6-0.8c-2.8-1-7.1-1.9-9.8-2.1c-1.5-0.1-3.5-0.4-4.4-0.6
	c-1.2-0.3-11.3-0.4-49.8-0.4h-48.2l-2.3,0.7c-3.8,1.2-6.8,4.2-8.1,8c-0.5,1.4-0.6,3.7-0.7,19.3c-0.1,9.8-0.3,18.4-0.5,19.1
	c-2,9.5-14.1,17.2-23.1,14.8c-1.1-0.3-2.6-0.7-3.4-0.8c-4.1-0.8-10.6-6.6-12.3-10.9c-0.1-0.4-0.2-0.4-0.2,0.1
	c-0.1,2.5,8.2,10.4,11.5,11c0.6,0.1,1.9,0.5,2.8,0.8c6.3,2.3,16.7-1.2,21.2-7.2c4.2-5.6,4.3-6.2,4.6-27.6
	c0.1-12.7,0.3-18.1,0.6-18.9c0.6-1.8,2.3-4,4.2-5.6c3.4-2.7,0.8-2.6,51.6-2.6c41.5,0,46.8,0.1,55.3,0.9c2.4,0.2,7.9,1.4,10.9,2.3
	c1,0.3,2.6,0.8,3.6,1.1c0.9,0.3,2.7,1,4,1.6s2.5,1.1,2.8,1.1s0.8,0.2,1.1,0.4c0.3,0.2,2,1.2,3.7,2.1c1.7,0.9,3.7,2.1,4.5,2.6
	s2.9,2,4.8,3.2c3.4,2.3,12.6,11,15.2,14.4c6.5,8.4,12.2,19.9,14.2,28.5c0.2,0.9,0.6,2.9,1,4.5c0.3,1.6,0.8,4,1.1,5.3
	c2.1,9-0.4,28.1-5.1,39.4c-3.4,8.2-9.3,17.6-14.2,22.9c-1,1.1-2.4,2.6-3,3.3c-4.3,4.8-18.5,15-22.5,16.2c-0.4,0.1-2.1,0.8-3.8,1.5
	c-5.2,2.2-9.8,3.7-13.2,4.3c-12,2-18.4,7.7-20.4,18.5c-1.6,8.3,4.7,19.3,12.6,22.1c0.8,0.3,2.1,0.8,3,1.1c2.1,0.8,7.6,0.8,9.9,0
	c0.9-0.3,2.5-0.7,3.6-0.8s2.7-0.5,3.7-0.8s2.1-0.6,2.5-0.6s1.6-0.3,2.7-0.7s3.2-1.1,4.7-1.6s3.5-1.2,4.4-1.6
	c0.9-0.4,1.8-0.7,1.9-0.7c1,0,12.4-5.7,16.8-8.5c13.1-8.1,26.4-20.1,34.3-30.8c0.7-0.9,1.3-1.8,1.5-2c2.4-3,7.4-11.1,9.9-16
	c3.5-6.9,3.1-6.1,7.2-16.7c0.4-1.1,0.7-2.2,0.7-2.5s0.2-1.1,0.5-1.8c0.7-1.7,2.2-7.3,2.6-10.1c0.2-1.3,0.6-3.2,0.8-4.2
	c0.2-1,0.5-3.5,0.7-5.6c0.1-2.4,0.4-4,0.7-4.4c0.6-1,0.7-18.2,0-19.4c-0.2-0.4-0.6-2.6-0.8-5c-0.2-2.3-0.5-4.8-0.7-5.6
	c-0.2-0.8-0.5-2.6-0.8-4c-0.4-2.4-1.8-7.8-2.7-10.3c-3-9.3-3.6-10.7-7.8-19.1c-4.8-9.5-10-17.3-16-23.8c-1-1.1-2.5-2.9-3.3-3.9
	c-1.7-2.2-2.6-3.1-5.3-5.3c-1.1-0.9-3.2-2.7-4.7-4c-3.2-2.9-8.3-6.8-12.9-9.7c-3.6-2.3-11.8-7-12.2-7c-0.1,0-1.7-0.7-3.4-1.6
	c-1.7-0.9-3.3-1.6-3.4-1.6s-1.7-0.6-3.4-1.3s-3.7-1.4-4.4-1.5c-0.7-0.1-1.9-0.5-2.8-0.9c-2.6-1.1-12.5-3.4-17.1-4.1
	c-1.2-0.2-2.3-0.4-2.5-0.6C262-0.1,259.1-0.1,259.1,0.3 M114.8,133.4c-6.9,2.8-11.4,8.1-12.9,15.2c-0.6,2.8-0.6,4.2-0.6,26.7
	c0,18.7-0.1,23.9-0.4,24.4c-0.4,0.5-2,0.5-24,0.5H53.2l-3.3,0.7c-7.2,1.6-13.9,6.9-15.3,12.2c-0.2,0.7-0.6,1.5-0.8,1.8
	c-0.9,1.1-0.7,11.7,0.3,13.9c2.7,6,5.7,9.2,10.7,11.7l3.1,1.5l26.2,0.1c23.8,0.1,26.2,0.1,26.6,0.6c0.3,0.4,0.5,5.2,0.6,25.9
	c0.2,24.5,0.2,25.5,0.8,27.4c2.1,6.8,7.7,12.4,13.6,13.7c0.9,0.2,1.9,0.6,2.4,0.9c1.1,0.8,7.2,0.9,8.1,0.1c0.3-0.3,1.4-0.7,2.4-1
	c5.6-1.4,10.3-5.5,13.1-11.3c1.7-3.5,1.7-3.8,1.7-30.7c0-24.6,0-25,0.6-25.3c0.4-0.2,8.6-0.3,26.3-0.3H196l2.3-1
	c15.2-6.6,18.5-25.2,6.3-35.8c-3-2.6-5.5-3.7-11.5-4.9c-1.1-0.2-9.5-0.3-25.3-0.3c-19.6,0-23.7-0.1-23.9-0.4
	c-0.3-0.3-0.4-7.5-0.4-26.1l-0.4-25.6l-0.9-2.2c-2.8-6.7-6.4-10.2-13-12.6C125.4,131.8,118.5,131.9,114.8,133.4"/>
</svg>
