<svg xmlns="http://www.w3.org/2000/svg" viewBox="0 0 63.78 89.04"><defs><style>.cls-1{fill:#fff;}</style></defs><title>Asset 2</title><g id="Layer_2" data-name="Layer 2"><g id="layer"><path class="cls-1" d="M22.13,11.77c.3,1.27,1.94,2.23,3,3.32,1-1,2.75-2,2.79-3.07C28,10.8,26.47,9.53,25,7.27,23.48,9.51,21.91,10.85,22.13,11.77Z"/><path class="cls-1" d="M14.44,85.8c1,1.14,1.84,2.88,3.06,3.21.88.24,2.27-1.4,4.27-2.78-1.92-1.46-3.05-3-4.16-3S15.5,84.89,14.44,85.8Z"/><path class="cls-1" d="M17.61,15.07c1.05.15,2.33-1.3,4.39-2.62-1.91-1.54-3.15-3.25-4-3.08-1.26.23-2.27,1.85-3.39,2.87C15.57,13.25,16.49,14.91,17.61,15.07Z"/><path class="cls-1" d="M39.3,15.13c1.06.11,2.28-1.38,4.28-2.77-1.94-1.48-3.24-3.17-4.13-3-1.25.27-2.19,1.94-3.27,3C37.21,13.38,38.18,15,39.3,15.13Z"/><path class="cls-1" d="M10.27,48.89c-1.34,2-2.79,3.24-2.69,4.31s1.73,2.08,2.69,3.11c1.11-1.08,2.8-2,3.12-3.27C13.6,52.19,11.83,50.86,10.27,48.89Z"/><path class="cls-1" d="M17.93,23.3c.87.18,2.14-1.55,4-3.07-2-1.36-3.26-2.87-4.3-2.73s-2,1.82-3,2.84C15.69,21.39,16.67,23,17.93,23.3Z"/><path class="cls-1" d="M13.1,4.31c-.34-1.22-2.08-2-3.21-3C9,2.34,7.37,3.4,7.35,4.48s1.55,2.21,3,4.09C11.72,6.58,13.34,5.19,13.1,4.31Z"/><path class="cls-1" d="M10.45,17.72c-1.1,1.05-2.79,2-3.09,3.2-.21.86,1.5,2.18,3,4.07,1.41-1.92,3-3.11,2.88-4.18S11.43,18.74,10.45,17.72Z"/><path class="cls-1" d="M18,58.5c-1.14,1-2.84,1.86-3.22,3.11-.25.84,1.36,2.25,2.72,4.27,1.48-1.92,3-3,3-4.11S18.87,59.59,18,58.5Z"/><path class="cls-1" d="M7.24,85.68c1,1.15,1.79,2.88,3,3.25.87.27,2.3-1.3,4.38-2.62-1.91-1.54-3-3.11-4.08-3.09S8.34,84.79,7.24,85.68Z"/><path class="cls-1" d="M46.42,7.36c1-1.12,2.65-2.11,2.91-3.38.17-.86-1.58-2.11-3.11-4-1.34,2-2.85,3.29-2.7,4.32S45.38,6.36,46.42,7.36Z"/><path class="cls-1" d="M10.57,74.84c-1.14,1-2.87,1.85-3.22,3.09-.25.85,1.41,2.25,2.79,4.22,1.48-1.88,3.07-3,3-4.08S11.5,75.91,10.57,74.84Z"/><path class="cls-1" d="M14.52,69.74c1,1,1.94,2.7,3.05,2.83s2.31-1.39,4.31-2.75c-1.89-1.51-3.16-3.24-4.05-3.06C16.58,67,15.61,68.68,14.52,69.74Z"/><path class="cls-1" d="M46.88,25.6c-1.14,1-2.86,1.86-3.23,3.11-.25.83,1.42,2.24,2.81,4.22,1.48-1.88,3.06-3,3-4.07S47.81,26.68,46.88,25.6Z"/><path class="cls-1" d="M17.84,7.18c.82.24,2.19-1.4,4.17-2.79C20.05,3,18.9,1.45,17.82,1.5S15.69,3.12,14.63,4C15.68,5.15,16.57,6.8,17.84,7.18Z"/><path class="cls-1" d="M3.24,42.14c-1.08,1.08-2.69,2-3,3.28-.22.82,1.45,2.13,2.91,4.07,1.37-2,2.83-3.19,2.74-4.25S4.18,43.17,3.24,42.14Z"/><path class="cls-1" d="M39.75,7.32C40.59,6.21,42.09,5.1,42.08,4S40.5,1.88,38.93,0c-1.27,2.06-2.82,3.54-2.52,4.33C36.87,5.57,38.57,6.35,39.75,7.32Z"/><path class="cls-1" d="M53.61,14.29c1,.19,2.36-1.16,4.68-2.47-2.2-1.61-3.38-3.11-4.63-3.18-.92-.05-2.68,1.77-2.7,2.78S52.52,14.1,53.61,14.29Z"/><path class="cls-1" d="M3.1,9.25c-1,1.13-2.61,2.14-2.88,3.42-.17.84,1.55,2.08,3.11,4,1.28-2.06,2.7-3.32,2.55-4.37S4.09,10.25,3.1,9.25Z"/><path class="cls-1" d="M24.6,42.28c-1.25.45-2,2.16-3,3.34,1.12.84,2.24,2.34,3.36,2.34s2.12-1.58,4-3.13C26.87,43.55,25.39,42,24.6,42.28Z"/><path class="cls-1" d="M21.53,53c1,1.17,1.82,2.9,3.07,3.3.82.27,2.26-1.39,4.26-2.76-1.84-1.48-2.94-3.07-4-3S22.64,52.06,21.53,53Z"/><path class="cls-1" d="M13.34,61.6c-.38-1.26-2.09-2.1-3.24-3.13-.89,1.1-2.44,2.17-2.49,3.3S9,63.85,10.35,65.58c-1.39,2-2.77,3.12-2.66,4.13s1.71,2.44,2.87,2.7c.68.15,2.49-1.61,2.52-2.56S12,67.63,10.73,65.68C12.07,63.76,13.59,62.41,13.34,61.6Z"/><path class="cls-1" d="M3.23,75c-1-.1-3,1.52-3,2.44C.18,78.73,1.56,80,3,82.39,4.48,80.2,6,79,5.87,78A4,4,0,0,0,3.23,75Z"/><path class="cls-1" d="M3.19,31.57c1.06.06,2.22-1.43,4.18-2.86-2-1.41-3.34-3-4.17-2.81C2,26.26,1.06,27.91,0,29,1.08,29.93,2.09,31.5,3.19,31.57Z"/><path class="cls-1" d="M17.91,25.91c-1.28.34-2.21,2-3.29,3.05,1,.93,2,2.53,3.13,2.61S20,30.18,22,28.78C20.07,27.34,18.73,25.68,17.91,25.91Z"/><path class="cls-1" d="M61,34.32c-1,0-2.86,1.71-2.84,2.64,0,1.25,1.49,2.46,3,4.72,1.38-2.3,2.76-3.58,2.61-4.63S62,34.34,61,34.32Z"/><path class="cls-1" d="M3.13,72.49c1,.11,2.23-1.39,4.2-2.78-1.94-1.47-3.24-3.15-4.12-2.95C2,67,1.06,68.71,0,69.78,1,70.75,2,72.37,3.13,72.49Z"/><path class="cls-1" d="M32.11,34.33c-1,0-2.61,1.64-2.77,2.74s1,2.16,2.3,4.18c-1.23,1.77-2.42,2.9-2.3,3.86.14,1.12,1.79,2,2.78,3.06,1-1,2.73-2,2.83-3s-1.25-2.15-2.64-4c1.41-1.92,2.64-3,2.67-4.2C35,36,33.13,34.32,32.11,34.33Z"/><path class="cls-1" d="M31.75,15.09c1,.26,2.45-1.08,4.68-2.21-1.85-1.7-2.86-3.36-3.94-3.41s-3,1.45-3.1,2.43A4,4,0,0,0,31.75,15.09Z"/><path class="cls-1" d="M5.86,4.24C5.73,3.16,4,1.48,3,1.49S.3,3.21.21,4.28s1.44,2.28,2.9,4.33C4.49,6.55,6,5.3,5.86,4.24Z"/><path class="cls-1" d="M51,45c.1,1.12,1.71,2.1,2.67,3.15,1-1,2.79-1.85,2.93-2.94s-1.35-2.35-2.75-4.51C52.36,42.76,50.86,44,51,45Z"/><path class="cls-1" d="M18,43.29c-1.14,0-2.26,1.58-3.38,2.47.88,1.09,1.62,2.84,2.7,3.09s2.44-1.07,4.72-2.22C20.14,44.94,19.08,43.28,18,43.29Z"/><path class="cls-1" d="M58.18,28.45c0,1.1,1.66,2.15,2.59,3.22,1.06-.93,2.77-1.74,3-2.84s-1.08-2.3-2.27-4.35c1.21-1.78,2.41-2.94,2.27-3.9s-1.89-2.71-2.89-2.68-2.69,1.78-2.75,2.84,1.37,2.15,2.82,4C59.48,26.44,58.15,27.47,58.18,28.45Z"/><path class="cls-1" d="M20.5,37.19c.18-1-1.28-2.32-2.61-4.46-1.56,2-3.17,3.17-3.07,4.17s1.68,2.89,2.74,3S20.3,38.3,20.5,37.19Z"/><path class="cls-1" d="M21.54,37.15c1.05,1,2,2.64,3.18,2.76S27,38.43,29,36.9c-2.15-1.32-3.44-2.75-4.5-2.6S22.53,36.14,21.54,37.15Z"/><path class="cls-1" d="M3.11,39.91c1,.11,2.25-1.44,4.32-2.93C5.32,35.61,4.06,34.16,3,34.3s-2,1.81-3,2.82C1,38.11,2,39.79,3.11,39.91Z"/><path class="cls-1" d="M43.31,37c1,1,1.86,2.74,3,2.95,1,.18,2.27-1.33,4.4-2.73-2.05-1.5-3.24-3-4.26-2.92S44.35,36.06,43.31,37Z"/><path class="cls-1" d="M38.93,40.09c1.07-1,2.79-1.76,3-2.89s-1.25-2.32-2.57-4.49c-1.57,2-3.16,3.15-3.09,4.18S38,39,38.93,40.09Z"/><path class="cls-1" d="M46.25,42.08c-1,1.06-2.63,2-2.75,3.19s1.47,2.23,3,4.29c1.33-2.16,2.75-3.45,2.59-4.5S47.27,43.06,46.25,42.08Z"/><path class="cls-1" d="M53.72,23.64c.87.24,2.26-1.36,4.25-2.7-1.84-1.47-2.93-3-4-3s-2.12,1.56-3.18,2.45c-2-1.14-3.15-2.22-4.39-2.32C45.7,18,44,20,44.2,20.4a5.44,5.44,0,0,0,2.86,3c.74.2,2-1.37,3.8-2.83C51.79,21.67,52.56,23.31,53.72,23.64Z"/><path class="cls-1" d="M46.54,14.93c1.17,0,2.36-1.28,4.57-2.65-2.18-1.4-3.35-2.72-4.53-2.72-.86,0-2.4,1.71-2.41,2.67S45.67,14.92,46.54,14.93Z"/><path class="cls-1" d="M36.51,45.93c1.05,1,2,2.4,3.18,2.65.79.16,1.93-1.43,3.52-2.73-1.62-1.25-2.79-2.8-3.58-2.63C38.45,43.49,37.54,45,36.51,45.93Z"/><path class="cls-1" d="M51,28.63c0,1,1.68,2.74,2.74,2.83S56,30,58,28.64c-2-1.41-3.23-2.93-4.31-2.84A4,4,0,0,0,51,28.63Z"/><path class="cls-1" d="M7.66,28.69a4.56,4.56,0,0,0,3,2.67c.83.14,1.95-1.45,3.75-2.93-2-1.21-3.22-2.52-4.39-2.48C9.14,26,7.45,28,7.66,28.69Z"/><path class="cls-1" d="M2.8,49.46C1.61,51.14.09,52.39.3,53.2c.31,1.16,1.86,2,2.88,3,.89-1.08,2.34-2.09,2.5-3.27C5.79,52.08,4.16,51,2.8,49.46Z"/><path class="cls-1" d="M24.76,7C25.91,7,27.05,5.59,29,4.28,27.08,2.94,25.87,1.46,25,1.64c-1.15.26-2,1.77-3,2.75C22.94,5.31,23.86,7,24.76,7Z"/><path class="cls-1" d="M10.37,34.47c-1.14.3-1.95,1.83-2.9,2.84,1,.86,2,2.43,2.86,2.39,1.15-.07,2.23-1.45,4.13-2.83C12.47,35.63,11.21,34.25,10.37,34.47Z"/></g></g></svg>