<svg xmlns="http://www.w3.org/2000/svg" viewBox="0 0 871.33 1000"><defs><style>.cls-1{fill:#fff;}</style></defs><title>Asset 1</title><g id="Layer_2" data-name="Layer 2"><g id="Layer_1-2" data-name="Layer 1"><path class="cls-1" d="M786.33,429.14c-55.29-67.69-112-134.22-168.91-200.56-13.68-16-15.27-29.14-5.56-48.63C639.72,123.87,665,66.39,694.27,2.74c-20.34,0-33.42-.07-46.43,0-118,.36-237-8.44-353.76,3.72C167.13,19.66,75.13,95.83,27,215.75c-49.43,123.16-30.06,239.47,50.46,344,42.76,55.53,89.55,108,135.12,161.28,60.66,71,60.79,70.74,20.35,155.29-18.15,38-35.56,76.42-55.66,119.61,19.86,1.59,33.66,3.66,47.47,3.66,92.55.31,185.16.68,277.71-.12,28.35-.24,57.3-1.1,84.91-6.9C717.79,965.13,809.18,890,852,762.56,893.17,640,867.33,528.28,786.33,429.14ZM740.82,751.26c-15.27,33.66-43.86,46.06-79,46.12q-152.57.18-305.08-.06c-7,0-14-1.1-29.93-2.51,14.48-32.07,23.52-61.51,39.71-86.19,34.94-53.27,29.69-93.77-16.44-141.55C279,493.46,217.41,410.69,150.94,332.49c-22-25.9-34.88-52.59-19.67-86,15.58-34.33,45.7-44.17,80.09-44.41,82.35-.49,164.76-.25,247.11-.25h84.36c-5.19,15.58-7.7,25.91-12,35.44-15.52,34.14-30.12,68.9-48.08,101.77-11.12,20.28-9,34.45,5.44,51.44,77.64,91.32,154.25,183.57,231.83,275C741.73,691,756.15,717.54,740.82,751.26Z"/><path class="cls-1" d="M786.33,429.14c-55.29-67.69-112-134.22-168.91-200.56-13.68-16-15.27-29.14-5.56-48.63C639.72,123.87,665,66.39,694.27,2.74c-20.34,0-33.42-.07-46.43,0-118,.36-237-8.44-353.76,3.72C167.13,19.66,75.13,95.83,27,215.75c-49.43,123.16-30.06,239.47,50.46,344,42.76,55.53,89.55,108,135.12,161.28,60.66,71,60.79,70.74,20.35,155.29-18.15,38-35.56,76.42-55.66,119.61,19.86,1.59,33.66,3.66,47.47,3.66,92.55.31,185.16.68,277.71-.12,28.35-.24,57.3-1.1,84.91-6.9C717.79,965.13,809.18,890,852,762.56,893.17,640,867.33,528.28,786.33,429.14ZM740.82,751.26c-15.27,33.66-43.86,46.06-79,46.12q-152.57.18-305.08-.06c-7,0-14-1.1-29.93-2.51,14.48-32.07,23.52-61.51,39.71-86.19,34.94-53.27,29.69-93.77-16.44-141.55C279,493.46,217.41,410.69,150.94,332.49c-22-25.9-34.88-52.59-19.67-86,15.58-34.33,45.7-44.17,80.09-44.41,82.35-.49,164.76-.25,247.11-.25h84.36c-5.19,15.58-7.7,25.91-12,35.44-15.52,34.14-30.12,68.9-48.08,101.77-11.12,20.28-9,34.45,5.44,51.44,77.64,91.32,154.25,183.57,231.83,275C741.73,691,756.15,717.54,740.82,751.26Z"/></g></g></svg>