<svg xmlns="http://www.w3.org/2000/svg" viewBox="0 0 206.92 209.34"><defs><style>.cls-1{fill:#fff;}</style></defs><title>Asset 4</title><g id="Layer_2" data-name="Layer 2"><g id="Layer_1-2" data-name="Layer 1"><path class="cls-1" d="M0,209.34q3.42-12.06,6.82-24.13c.46-1.67,1.31-2.62,3.16-2.38a14.73,14.73,0,0,0,1.88,0H165.23c4.67,0,4.48,0,3.4,4.49-1.77,7.39-4.78,14.45-5.88,22Z"/><path class="cls-1" d="M60,109.45c9.75,0,19.5.08,29.24-.06,3,0,4,.38,2.93,3.68A52.46,52.46,0,0,0,89,126.14c-.36,5.21,1.87,7.92,7,8.81,12,2.08,21.63-6,21.63-18.28a9.43,9.43,0,0,0-4.26-8.27c-6.16-4.27-13.43-5.25-20.45-6.81-9.25-2.06-18.64-3.53-27.73-6.26C57.38,93,50,89.74,44.52,83.25,38.26,75.79,37.84,66.94,39.33,58c4.33-25.87,19.09-43,44-51.31A130.43,130.43,0,0,1,117.16.55c21.4-1.25,42.72-.68,63.58,5a96.94,96.94,0,0,1,24,10.18c2,1.17,2.51,2.22,1.87,4.43-3.08,10.66-6.09,21.34-8.95,32.06C197,55,195.78,56,192.83,55.93c-18.37-.15-36.74-.12-55.11,0-2.79,0-4.21-.21-3-3.61a25.21,25.21,0,0,0,1.19-10,6.42,6.42,0,0,0-4.33-6,16.82,16.82,0,0,0-22.24,11.33c-.83,3.14-.19,5.66,2.37,7.67,5.78,4.54,12.79,6,19.66,7.76,11.59,3,23.56,4.46,34.74,9,10.27,4.17,19.15,9.83,22.17,21.5a29.53,29.53,0,0,1,.33,13C185.64,122,180,136,168.36,147.08c-9.65,9.22-21.24,14.73-34,18.13-20.26,5.42-40.92,6.15-61.72,4.91-13.25-.79-26.3-2.74-38.85-7.32a81.14,81.14,0,0,1-16.11-7.86c-1.6-1-2.2-1.84-1.64-3.86q5.47-19.44,10.62-39c.56-2.13,1.54-2.71,3.62-2.69C40.21,109.5,50.08,109.45,60,109.45Z"/></g></g></svg>